<?xml version="1.0" standalone="no"?>
<!DOCTYPE svg PUBLIC "-//W3C//DTD SVG 20010904//EN"
 "http://www.w3.org/TR/2001/REC-SVG-20010904/DTD/svg10.dtd">
<svg version="1.0" xmlns="http://www.w3.org/2000/svg"
 width="858.000000pt" height="454.000000pt" viewBox="0 0 858.000000 454.000000"
 preserveAspectRatio="xMidYMid meet">

<g transform="translate(0.000000,454.000000) scale(0.100000,-0.100000)"
fill="#000000" stroke="none">
<path d="M7508 3943 c6 -2 18 -2 25 0 6 3 1 5 -13 5 -14 0 -19 -2 -12 -5z"/>
<path d="M7398 3923 c7 -3 16 -2 19 1 4 3 -2 6 -13 5 -11 0 -14 -3 -6 -6z"/>
<path d="M7158 3893 c7 -3 16 -2 19 1 4 3 -2 6 -13 5 -11 0 -14 -3 -6 -6z"/>
<path d="M6648 3813 c7 -3 16 -2 19 1 4 3 -2 6 -13 5 -11 0 -14 -3 -6 -6z"/>
<path d="M6730 3816 c0 -2 7 -7 16 -10 8 -3 12 -2 9 4 -6 10 -25 14 -25 6z"/>
<path d="M6578 3803 c7 -3 16 -2 19 1 4 3 -2 6 -13 5 -11 0 -14 -3 -6 -6z"/>
<path d="M7266 3588 c-152 -13 -175 -22 -208 -83 -30 -55 -161 -360 -263 -615
-36 -91 -111 -277 -166 -413 -54 -136 -99 -259 -99 -273 0 -13 7 -27 15 -30
14 -6 298 20 352 31 15 4 27 21 42 60 28 75 67 134 95 145 88 33 491 55 523
29 9 -8 36 -56 60 -107 25 -51 51 -96 59 -99 21 -8 325 17 346 28 10 5 18 19
18 30 0 25 -70 206 -140 359 -28 63 -73 169 -100 235 -161 401 -276 661 -308
698 -17 19 -49 20 -226 5z m87 -575 c48 -104 81 -209 75 -239 -1 -10 -16 -21
-33 -26 -51 -13 -241 -22 -248 -11 -4 6 1 37 9 69 9 33 20 76 25 97 16 65 91
207 109 207 12 0 32 -31 63 -97z"/>
<path d="M6136 3549 c-114 -12 -172 -22 -177 -31 -5 -7 -9 -162 -9 -344 0
-182 -3 -346 -6 -363 -4 -21 -12 -31 -24 -31 -22 0 -97 85 -205 230 -43 58
-111 143 -150 190 -39 47 -86 108 -105 135 -54 82 -101 136 -125 145 -34 13
-284 -13 -296 -30 -11 -19 -12 -1390 0 -1409 7 -11 32 -13 132 -7 128 8 205
18 217 31 4 3 9 167 12 363 5 352 5 357 26 360 28 4 118 -97 264 -298 62 -85
151 -203 198 -262 l84 -108 56 0 c87 0 286 22 300 33 9 7 12 160 12 703 0 650
-1 694 -17 702 -11 5 -88 1 -187 -9z"/>
<path d="M4420 3396 c-69 -6 -131 -15 -137 -19 -10 -6 -13 -158 -13 -703 0
-619 2 -695 16 -701 16 -6 235 13 313 27 24 4 47 14 51 21 17 26 20 232 13
799 l-8 585 -55 1 c-30 1 -111 -4 -180 -10z"/>
<path d="M3364 3310 c-154 -13 -626 -60 -652 -65 l-22 -5 2 -688 3 -687 50 1
c102 2 309 25 322 35 10 9 13 53 13 194 0 144 3 185 14 194 15 13 23 14 276
36 200 18 267 32 359 78 240 118 339 411 220 652 -35 71 -129 169 -195 203
-96 49 -218 65 -390 52z m161 -326 c62 -29 90 -133 61 -221 -26 -77 -81 -117
-184 -133 -105 -17 -273 -31 -293 -25 -18 6 -19 18 -19 186 0 150 2 181 15
185 27 11 158 21 273 23 85 1 122 -3 147 -15z"/>
<path d="M1580 3263 c-317 -32 -557 -177 -672 -408 -178 -354 -54 -785 274
-956 79 -41 81 -41 183 -40 57 1 224 13 370 26 312 29 319 31 447 153 150 143
207 267 215 472 6 154 -10 242 -66 355 -111 222 -309 358 -574 394 -77 11
-106 11 -177 4z m180 -342 c135 -51 230 -211 230 -390 0 -243 -142 -417 -356
-437 -235 -22 -404 159 -404 432 0 225 105 364 315 418 40 10 161 -3 215 -23z"/>
<path d="M7782 1956 c-104 -9 -146 -16 -153 -27 -7 -12 -10 -81 -14 -404 -2
-134 -2 -135 -38 -150 -50 -21 -445 -107 -475 -103 -25 3 -28 8 -34 58 -3 30
-6 161 -7 290 -1 304 10 285 -160 277 -69 -3 -148 -12 -176 -19 -49 -13 -50
-14 -57 -58 -3 -25 -7 -352 -7 -727 -1 -607 1 -683 15 -697 23 -24 355 -24
375 0 11 13 13 67 10 260 l-3 243 24 15 c61 39 305 110 422 122 61 6 69 5 91
-16 l25 -23 0 -289 c0 -180 4 -297 10 -309 10 -18 23 -19 188 -19 97 0 184 5
192 10 11 7 15 29 15 87 0 43 -1 387 -3 766 -2 672 -2 687 -22 707 -22 22 -16
22 -218 6z"/>
<path d="M5665 1842 c-99 -25 -195 -73 -250 -123 -170 -157 -160 -487 18 -607
56 -38 198 -98 327 -138 160 -49 212 -71 248 -103 27 -25 32 -37 32 -76 0 -63
-13 -83 -73 -111 -107 -50 -314 -22 -462 62 -113 64 -120 64 -177 -21 -72
-106 -99 -164 -87 -186 12 -23 145 -87 254 -123 321 -105 648 -59 808 113 82
89 101 146 102 296 0 116 -1 123 -33 187 -19 40 -50 82 -76 105 -68 60 -234
137 -405 188 -222 66 -251 84 -251 155 0 48 43 85 116 100 66 14 149 9 294
-16 114 -20 158 -14 204 27 51 45 99 124 92 152 -7 29 -103 75 -221 107 -114
31 -360 37 -460 12z"/>
<path d="M4335 1769 c-128 -10 -155 -16 -176 -35 -10 -9 -52 -98 -94 -198
-133 -314 -294 -694 -386 -908 -49 -113 -89 -213 -89 -221 0 -24 23 -27 204
-27 166 0 173 1 192 23 23 26 39 56 57 112 24 70 34 73 305 92 285 20 261 28
317 -106 53 -128 38 -121 246 -121 97 0 184 3 193 6 25 10 20 36 -30 152 -25
59 -77 181 -114 272 -79 193 -216 522 -305 735 -34 83 -69 168 -77 190 l-14
40 -64 1 c-36 1 -110 -2 -165 -7z m65 -531 c15 -35 45 -114 66 -176 46 -137
46 -137 -81 -152 -130 -14 -174 -13 -182 6 -5 14 89 285 124 357 21 43 41 33
73 -35z"/>
<path d="M2898 1749 c-233 -34 -453 -187 -539 -374 -56 -123 -73 -201 -73
-325 1 -208 61 -360 198 -496 135 -135 288 -194 502 -194 189 0 348 51 469
151 69 57 71 63 41 109 -43 65 -146 180 -161 180 -8 0 -43 -19 -77 -43 -195
-133 -449 -95 -556 83 -44 74 -56 120 -56 215 0 226 168 376 407 362 78 -4 98
-9 164 -43 56 -28 79 -35 91 -28 10 6 54 59 100 120 98 130 100 144 29 190
-125 82 -351 121 -539 93z"/>
<path d="M92 1250 c0 -14 2 -19 5 -12 2 6 2 18 0 25 -3 6 -5 1 -5 -13z"/>
<path d="M1961 984 c0 -11 3 -14 6 -6 3 7 2 16 -1 19 -3 4 -6 -2 -5 -13z"/>
<path d="M210 900 c0 -5 5 -10 11 -10 5 0 7 5 4 10 -3 6 -8 10 -11 10 -2 0 -4
-4 -4 -10z"/>
<path d="M1895 829 c-9 -17 -15 -33 -13 -35 3 -2 12 12 21 31 21 43 13 47 -8
4z"/>
<path d="M1831 753 c-7 -8 -11 -16 -8 -19 2 -2 10 2 17 11 17 20 9 27 -9 8z"/>
<path d="M1795 710 c-3 -5 -13 -6 -23 -3 -9 3 -14 3 -10 -2 9 -9 -9 -26 -42
-42 -15 -7 -19 -12 -9 -12 14 -1 99 55 99 65 0 7 -9 4 -15 -6z"/>
<path d="M1710 690 c-8 -5 -12 -11 -10 -14 3 -2 14 2 24 10 22 15 10 19 -14 4z"/>
<path d="M1269 650 c13 -11 31 -20 42 -20 10 0 21 -5 25 -11 3 -6 17 -8 31 -4
14 3 22 2 20 -2 -3 -5 2 -9 11 -9 9 0 40 -4 68 -8 37 -5 54 -4 59 5 6 9 1 10
-17 6 -14 -4 -49 0 -78 7 -30 8 -60 12 -67 9 -7 -3 -13 0 -13 6 0 6 -9 11 -20
11 -12 0 -35 7 -53 15 l-32 16 24 -21z"/>
<path d="M1620 638 c24 -10 23 -11 -25 -23 -27 -7 -41 -13 -30 -14 11 0 37 4
58 10 36 10 38 11 20 24 -10 8 -25 14 -33 14 -8 0 -4 -5 10 -11z"/>
<path d="M1660 640 c8 -5 20 -10 25 -10 6 0 3 5 -5 10 -8 5 -19 10 -25 10 -5
0 -3 -5 5 -10z"/>
<path d="M1545 630 c4 -6 11 -8 16 -5 14 9 11 15 -7 15 -8 0 -12 -5 -9 -10z"/>
<path d="M1468 623 c6 -2 18 -2 25 0 6 3 1 5 -13 5 -14 0 -19 -2 -12 -5z"/>
</g>
</svg>
